<mxfile host="app.diagrams.net" modified="2023-05-22T19:06:56.707Z" agent="Mozilla/5.0 (Windows NT 10.0; Win64; x64) AppleWebKit/537.36 (KHTML, like Gecko) Chrome/113.0.0.0 Safari/537.36 Edg/113.0.1774.50" etag="VVmHGOyqJIoxO1u4BDRY" version="21.3.2" type="device">
  <diagram name="Страница 1" id="hlILQuanGjLB2rlqUcfx">
    <mxGraphModel dx="2227" dy="764" grid="1" gridSize="9" guides="1" tooltips="1" connect="1" arrows="1" fold="1" page="1" pageScale="1" pageWidth="827" pageHeight="1169" background="#ffffff" math="0" shadow="0">
      <root>
        <mxCell id="0" />
        <mxCell id="1" parent="0" />
        <mxCell id="jO_Zi7yag9qyVXYzIDAD-18" value="" style="edgeStyle=orthogonalEdgeStyle;rounded=0;orthogonalLoop=1;jettySize=auto;html=1;" parent="1" source="81rwY3mGK5LgOC5ezEOb-44" target="81rwY3mGK5LgOC5ezEOb-72" edge="1">
          <mxGeometry relative="1" as="geometry" />
        </mxCell>
        <mxCell id="81rwY3mGK5LgOC5ezEOb-6" value="" style="rounded=1;whiteSpace=wrap;html=1;fillColor=none;fontFamily=Tahoma;labelBackgroundColor=none;strokeColor=#000066;fontColor=#393C56;strokeWidth=2;" parent="1" vertex="1">
          <mxGeometry x="-60" y="70" width="470" height="140" as="geometry" />
        </mxCell>
        <mxCell id="81rwY3mGK5LgOC5ezEOb-21" value="" style="rounded=1;whiteSpace=wrap;html=1;fillColor=none;fontFamily=Tahoma;labelBackgroundColor=none;strokeColor=#000066;fontColor=#393C56;strokeWidth=2;" parent="1" vertex="1">
          <mxGeometry x="-60" y="399" width="470" height="140" as="geometry" />
        </mxCell>
        <mxCell id="U-qlc5mR2PAobAkXAEJ2-4" style="edgeStyle=orthogonalEdgeStyle;rounded=0;orthogonalLoop=1;jettySize=auto;html=1;" edge="1" parent="1" source="81rwY3mGK5LgOC5ezEOb-13">
          <mxGeometry relative="1" as="geometry">
            <mxPoint x="-90" y="304.5" as="targetPoint" />
          </mxGeometry>
        </mxCell>
        <mxCell id="81rwY3mGK5LgOC5ezEOb-13" value="" style="rounded=1;whiteSpace=wrap;html=1;fillColor=none;fontFamily=Tahoma;labelBackgroundColor=none;strokeColor=#000066;fontColor=#393C56;strokeWidth=2;" parent="1" vertex="1">
          <mxGeometry x="-60" y="229" width="470" height="151" as="geometry" />
        </mxCell>
        <mxCell id="Xg_cVoiJlZ407YM_Tam--1" value="API GATEWAY" style="rounded=0;whiteSpace=wrap;html=1;fontFamily=Courier New;fontSize=15;verticalAlign=middle;fontStyle=1;fillColor=#5CA8FF;strokeColor=#3F74E0;labelBackgroundColor=none;fontColor=#393C56;" parent="1" vertex="1">
          <mxGeometry x="-330" y="440" width="140" height="60" as="geometry" />
        </mxCell>
        <mxCell id="Xg_cVoiJlZ407YM_Tam--13" value="MongoDB" style="text;html=1;strokeColor=none;fillColor=none;align=center;verticalAlign=middle;whiteSpace=wrap;rounded=0;fontFamily=Tahoma;fontSize=15;fontStyle=1;labelBackgroundColor=none;fontColor=#393C56;" parent="1" vertex="1">
          <mxGeometry x="335" y="180" width="60" height="30" as="geometry" />
        </mxCell>
        <mxCell id="81rwY3mGK5LgOC5ezEOb-1" value="&lt;font size=&quot;1&quot; style=&quot;&quot;&gt;&lt;b style=&quot;font-size: 15px;&quot;&gt;User&lt;/b&gt;&lt;/font&gt;" style="swimlane;fontStyle=0;childLayout=stackLayout;horizontal=1;startSize=26;fillColor=#5CA8FF;horizontalStack=0;resizeParent=1;resizeParentMax=0;resizeLast=0;collapsible=1;marginBottom=0;html=1;strokeColor=#3F74E0;fontFamily=Tahoma;labelBackgroundColor=none;fontColor=#393C56;strokeWidth=2;" parent="1" vertex="1">
          <mxGeometry x="-36" y="90" width="240" height="100" as="geometry">
            <mxRectangle x="81" y="36" width="70" height="30" as="alternateBounds" />
          </mxGeometry>
        </mxCell>
        <mxCell id="81rwY3mGK5LgOC5ezEOb-2" value="1. Регистрация пользователя&lt;br&gt;2. Авторизация пользователя&lt;br&gt;3. Запрос информации по пользователю&lt;br&gt;4. Хранение аватарок" style="text;strokeColor=none;fillColor=none;align=left;verticalAlign=top;spacingLeft=4;spacingRight=4;overflow=hidden;rotatable=0;points=[[0,0.5],[1,0.5]];portConstraint=eastwest;whiteSpace=wrap;html=1;fontFamily=Tahoma;labelBackgroundColor=none;fontColor=#393C56;" parent="81rwY3mGK5LgOC5ezEOb-1" vertex="1">
          <mxGeometry y="26" width="240" height="74" as="geometry" />
        </mxCell>
        <mxCell id="81rwY3mGK5LgOC5ezEOb-10" value="PostgreSQL" style="text;html=1;strokeColor=none;fillColor=none;align=center;verticalAlign=middle;whiteSpace=wrap;rounded=0;fontFamily=Tahoma;fontSize=15;fontStyle=1;labelBackgroundColor=none;fontColor=#393C56;" parent="1" vertex="1">
          <mxGeometry x="334" y="340" width="60" height="30" as="geometry" />
        </mxCell>
        <mxCell id="81rwY3mGK5LgOC5ezEOb-11" value="&lt;span style=&quot;font-size: 15px;&quot;&gt;&lt;b&gt;Task&lt;/b&gt;&lt;/span&gt;" style="swimlane;fontStyle=0;childLayout=stackLayout;horizontal=1;startSize=26;fillColor=#5CA8FF;horizontalStack=0;resizeParent=1;resizeParentMax=0;resizeLast=0;collapsible=1;marginBottom=0;html=1;strokeColor=#3F74E0;fontFamily=Tahoma;labelBackgroundColor=none;fontColor=#393C56;strokeWidth=2;" parent="1" vertex="1">
          <mxGeometry x="-36" y="250" width="240" height="110" as="geometry">
            <mxRectangle x="81" y="36" width="70" height="30" as="alternateBounds" />
          </mxGeometry>
        </mxCell>
        <mxCell id="81rwY3mGK5LgOC5ezEOb-12" value="1.&amp;nbsp;Создание, редактирование, удаление заданий&lt;br&gt;2. Статусы заданий&lt;br&gt;3. Списки, пагинация, фильтрация&lt;br&gt;4. Хранение изображений" style="text;strokeColor=none;fillColor=none;align=left;verticalAlign=top;spacingLeft=4;spacingRight=4;overflow=hidden;rotatable=0;points=[[0,0.5],[1,0.5]];portConstraint=eastwest;whiteSpace=wrap;html=1;fontFamily=Tahoma;labelBackgroundColor=none;fontColor=#393C56;" parent="81rwY3mGK5LgOC5ezEOb-11" vertex="1">
          <mxGeometry y="26" width="240" height="84" as="geometry" />
        </mxCell>
        <mxCell id="81rwY3mGK5LgOC5ezEOb-16" value="" style="endArrow=classic;html=1;rounded=0;fontFamily=Tahoma;labelBackgroundColor=none;strokeColor=#3F74E0;fontColor=default;" parent="1" edge="1">
          <mxGeometry width="50" height="50" relative="1" as="geometry">
            <mxPoint x="214" y="460" as="sourcePoint" />
            <mxPoint x="324" y="460" as="targetPoint" />
          </mxGeometry>
        </mxCell>
        <mxCell id="81rwY3mGK5LgOC5ezEOb-18" value="MongoDB" style="text;html=1;strokeColor=none;fillColor=none;align=center;verticalAlign=middle;whiteSpace=wrap;rounded=0;fontFamily=Tahoma;fontSize=15;fontStyle=1;labelBackgroundColor=none;fontColor=#393C56;" parent="1" vertex="1">
          <mxGeometry x="337" y="500" width="60" height="30" as="geometry" />
        </mxCell>
        <mxCell id="81rwY3mGK5LgOC5ezEOb-19" value="&lt;span style=&quot;font-size: 15px;&quot;&gt;&lt;b&gt;Comment&lt;/b&gt;&lt;/span&gt;" style="swimlane;fontStyle=0;childLayout=stackLayout;horizontal=1;startSize=26;fillColor=#5CA8FF;horizontalStack=0;resizeParent=1;resizeParentMax=0;resizeLast=0;collapsible=1;marginBottom=0;html=1;strokeColor=#3F74E0;fontFamily=Tahoma;labelBackgroundColor=none;fontColor=#393C56;strokeWidth=2;" parent="1" vertex="1">
          <mxGeometry x="-36" y="419" width="240" height="100" as="geometry">
            <mxRectangle x="81" y="36" width="70" height="30" as="alternateBounds" />
          </mxGeometry>
        </mxCell>
        <mxCell id="81rwY3mGK5LgOC5ezEOb-20" value="1. Создание, удаление комментариев&lt;br&gt;2. Списки" style="text;strokeColor=none;fillColor=none;align=left;verticalAlign=top;spacingLeft=4;spacingRight=4;overflow=hidden;rotatable=0;points=[[0,0.5],[1,0.5]];portConstraint=eastwest;whiteSpace=wrap;html=1;fontFamily=Tahoma;labelBackgroundColor=none;fontColor=#393C56;" parent="81rwY3mGK5LgOC5ezEOb-19" vertex="1">
          <mxGeometry y="26" width="240" height="74" as="geometry" />
        </mxCell>
        <mxCell id="81rwY3mGK5LgOC5ezEOb-22" value="" style="rounded=1;whiteSpace=wrap;html=1;fillColor=none;fontFamily=Tahoma;labelBackgroundColor=none;strokeColor=#000066;fontColor=#393C56;strokeWidth=2;" parent="1" vertex="1">
          <mxGeometry x="-60" y="559" width="470" height="140" as="geometry" />
        </mxCell>
        <mxCell id="81rwY3mGK5LgOC5ezEOb-24" value="" style="endArrow=classic;html=1;rounded=0;fontFamily=Tahoma;labelBackgroundColor=none;strokeColor=#3F74E0;fontColor=default;" parent="1" edge="1">
          <mxGeometry width="50" height="50" relative="1" as="geometry">
            <mxPoint x="214" y="620" as="sourcePoint" />
            <mxPoint x="324" y="620" as="targetPoint" />
          </mxGeometry>
        </mxCell>
        <mxCell id="81rwY3mGK5LgOC5ezEOb-26" value="MongoDB" style="text;html=1;strokeColor=none;fillColor=none;align=center;verticalAlign=middle;whiteSpace=wrap;rounded=0;fontFamily=Tahoma;fontSize=15;fontStyle=1;labelBackgroundColor=none;fontColor=#393C56;" parent="1" vertex="1">
          <mxGeometry x="337" y="660" width="60" height="30" as="geometry" />
        </mxCell>
        <mxCell id="81rwY3mGK5LgOC5ezEOb-27" value="&lt;span style=&quot;font-size: 15px;&quot;&gt;&lt;b&gt;Review&lt;/b&gt;&lt;/span&gt;" style="swimlane;fontStyle=0;childLayout=stackLayout;horizontal=1;startSize=26;fillColor=#5CA8FF;horizontalStack=0;resizeParent=1;resizeParentMax=0;resizeLast=0;collapsible=1;marginBottom=0;html=1;strokeColor=#3F74E0;fontFamily=Tahoma;labelBackgroundColor=none;fontColor=#393C56;strokeWidth=2;" parent="1" vertex="1">
          <mxGeometry x="-35" y="580" width="240" height="100" as="geometry">
            <mxRectangle x="81" y="36" width="70" height="30" as="alternateBounds" />
          </mxGeometry>
        </mxCell>
        <mxCell id="81rwY3mGK5LgOC5ezEOb-28" value="&lt;font style=&quot;font-size: 13px;&quot; face=&quot;Times New Roman&quot;&gt;1. Отзывы с оценкой&lt;/font&gt;" style="text;strokeColor=#3F74E0;fillColor=none;align=left;verticalAlign=top;spacingLeft=4;spacingRight=4;overflow=hidden;rotatable=0;points=[[0,0.5],[1,0.5]];portConstraint=eastwest;whiteSpace=wrap;html=1;fontFamily=Tahoma;labelBackgroundColor=none;fontColor=#393C56;" parent="81rwY3mGK5LgOC5ezEOb-27" vertex="1">
          <mxGeometry y="26" width="240" height="74" as="geometry" />
        </mxCell>
        <mxCell id="81rwY3mGK5LgOC5ezEOb-39" value="" style="endArrow=classic;html=1;rounded=0;fontFamily=Tahoma;labelBackgroundColor=none;strokeColor=#000066;fontColor=default;exitX=1.008;exitY=0.082;exitDx=0;exitDy=0;exitPerimeter=0;strokeWidth=2;" parent="1" edge="1">
          <mxGeometry width="50" height="50" relative="1" as="geometry">
            <mxPoint x="205.0000000000001" y="792.068" as="sourcePoint" />
            <mxPoint x="322.08000000000004" y="792" as="targetPoint" />
          </mxGeometry>
        </mxCell>
        <mxCell id="81rwY3mGK5LgOC5ezEOb-41" value="RabbitMQ" style="text;html=1;strokeColor=none;fillColor=none;align=center;verticalAlign=middle;whiteSpace=wrap;rounded=0;fontFamily=Tahoma;fontSize=15;fontStyle=1;labelBackgroundColor=none;fontColor=#393C56;" parent="1" vertex="1">
          <mxGeometry x="337" y="820" width="60" height="30" as="geometry" />
        </mxCell>
        <mxCell id="81rwY3mGK5LgOC5ezEOb-42" value="&lt;span style=&quot;font-size: 15px;&quot;&gt;&lt;b&gt;Notify&lt;/b&gt;&lt;/span&gt;" style="swimlane;fontStyle=0;childLayout=stackLayout;horizontal=1;startSize=26;fillColor=#5CA8FF;horizontalStack=0;resizeParent=1;resizeParentMax=0;resizeLast=0;collapsible=1;marginBottom=0;html=1;strokeColor=#3F74E0;fontFamily=Tahoma;labelBackgroundColor=none;fontColor=#393C56;strokeWidth=2;" parent="1" vertex="1">
          <mxGeometry x="-36" y="742" width="240" height="100" as="geometry">
            <mxRectangle x="81" y="36" width="70" height="30" as="alternateBounds" />
          </mxGeometry>
        </mxCell>
        <mxCell id="81rwY3mGK5LgOC5ezEOb-43" value="1. Рассылка уведомлений" style="text;strokeColor=none;fillColor=none;align=left;verticalAlign=top;spacingLeft=4;spacingRight=4;overflow=hidden;rotatable=0;points=[[0,0.5],[1,0.5]];portConstraint=eastwest;whiteSpace=wrap;html=1;fontFamily=Tahoma;labelBackgroundColor=none;fontColor=#393C56;" parent="81rwY3mGK5LgOC5ezEOb-42" vertex="1">
          <mxGeometry y="26" width="240" height="74" as="geometry" />
        </mxCell>
        <mxCell id="81rwY3mGK5LgOC5ezEOb-50" value="" style="endArrow=classic;html=1;rounded=0;labelBackgroundColor=none;strokeColor=#000066;fontColor=default;strokeWidth=2;entryX=0;entryY=0.471;entryDx=0;entryDy=0;entryPerimeter=0;" parent="1" edge="1" target="U-qlc5mR2PAobAkXAEJ2-11">
          <mxGeometry width="50" height="50" relative="1" as="geometry">
            <mxPoint x="-100" y="468" as="sourcePoint" />
            <mxPoint x="-72" y="792" as="targetPoint" />
            <Array as="points">
              <mxPoint x="-100" y="468" />
              <mxPoint x="-100" y="788" />
            </Array>
          </mxGeometry>
        </mxCell>
        <mxCell id="81rwY3mGK5LgOC5ezEOb-56" value="" style="endArrow=classic;html=1;rounded=0;entryX=0;entryY=0.5;entryDx=0;entryDy=0;dashed=1;dashPattern=8 8;labelBackgroundColor=none;strokeColor=#5CA8FF;fontColor=default;" parent="1" target="81rwY3mGK5LgOC5ezEOb-22" edge="1">
          <mxGeometry width="50" height="50" relative="1" as="geometry">
            <mxPoint x="-80" y="630" as="sourcePoint" />
            <mxPoint x="20" y="470" as="targetPoint" />
            <Array as="points" />
          </mxGeometry>
        </mxCell>
        <mxCell id="81rwY3mGK5LgOC5ezEOb-57" value="" style="endArrow=classic;html=1;rounded=0;entryX=1.008;entryY=0.564;entryDx=0;entryDy=0;fontFamily=Tahoma;labelBackgroundColor=none;strokeColor=#000066;fontColor=default;strokeWidth=2;endSize=3;startSize=2;jumpSize=2;entryPerimeter=0;" parent="1" edge="1">
          <mxGeometry width="50" height="50" relative="1" as="geometry">
            <mxPoint x="416" y="325" as="sourcePoint" />
            <mxPoint x="413.7600000000002" y="148.95999999999992" as="targetPoint" />
            <Array as="points">
              <mxPoint x="416" y="325" />
              <mxPoint x="470" y="325" />
              <mxPoint x="470" y="149" />
            </Array>
          </mxGeometry>
        </mxCell>
        <mxCell id="81rwY3mGK5LgOC5ezEOb-58" value="&lt;font face=&quot;Times New Roman&quot;&gt;Запрос типа пользователя&lt;/font&gt;" style="text;html=1;strokeColor=#3F74E0;fillColor=#5CA8FF;align=center;verticalAlign=middle;whiteSpace=wrap;rounded=1;rotation=270;fontSize=13;fontFamily=Tahoma;labelBackgroundColor=none;fontColor=#393C56;" parent="1" vertex="1">
          <mxGeometry x="414" y="220" width="170" height="30" as="geometry" />
        </mxCell>
        <mxCell id="81rwY3mGK5LgOC5ezEOb-59" value="" style="endArrow=classic;html=1;rounded=0;entryX=1;entryY=0.75;entryDx=0;entryDy=0;exitX=1.003;exitY=0.367;exitDx=0;exitDy=0;exitPerimeter=0;fontFamily=Tahoma;labelBackgroundColor=none;strokeColor=#000066;fontColor=default;strokeWidth=2;endSize=3;startSize=2;jumpSize=2;" parent="1" edge="1">
          <mxGeometry width="50" height="50" relative="1" as="geometry">
            <mxPoint x="413.4100000000003" y="126.38000000000011" as="sourcePoint" />
            <mxPoint x="412" y="347.25" as="targetPoint" />
            <Array as="points">
              <mxPoint x="531" y="126" />
              <mxPoint x="531" y="243" />
              <mxPoint x="531" y="347" />
            </Array>
          </mxGeometry>
        </mxCell>
        <mxCell id="81rwY3mGK5LgOC5ezEOb-60" value="&lt;font face=&quot;Times New Roman&quot; style=&quot;font-size: 13px;&quot;&gt;запрос мои задания&lt;/font&gt;" style="text;html=1;strokeColor=#3F74E0;fillColor=#5CA8FF;align=center;verticalAlign=middle;whiteSpace=wrap;rounded=1;rotation=270;fontSize=13;fontFamily=Tahoma;labelBackgroundColor=none;fontColor=#393C56;" parent="1" vertex="1">
          <mxGeometry x="473" y="210" width="170" height="30" as="geometry" />
        </mxCell>
        <mxCell id="81rwY3mGK5LgOC5ezEOb-61" value="" style="endArrow=classic;html=1;rounded=0;entryX=1;entryY=0.75;entryDx=0;entryDy=0;fontFamily=Tahoma;labelBackgroundColor=none;strokeColor=#000066;fontColor=default;strokeWidth=2;" parent="1" target="81rwY3mGK5LgOC5ezEOb-21" edge="1">
          <mxGeometry width="50" height="50" relative="1" as="geometry">
            <mxPoint x="470" y="360" as="sourcePoint" />
            <mxPoint x="650" y="200" as="targetPoint" />
            <Array as="points">
              <mxPoint x="414" y="360" />
              <mxPoint x="531" y="360" />
              <mxPoint x="531" y="504" />
            </Array>
          </mxGeometry>
        </mxCell>
        <mxCell id="81rwY3mGK5LgOC5ezEOb-62" value="&lt;font face=&quot;Times New Roman&quot;&gt;запрос комментариев&lt;/font&gt;" style="text;html=1;strokeColor=#3F74E0;fillColor=#5CA8FF;align=center;verticalAlign=middle;whiteSpace=wrap;rounded=1;rotation=270;fontSize=13;fontFamily=Tahoma;labelBackgroundColor=none;fontColor=#393C56;" parent="1" vertex="1">
          <mxGeometry x="485" y="417" width="146" height="30" as="geometry" />
        </mxCell>
        <mxCell id="81rwY3mGK5LgOC5ezEOb-64" value="&lt;font face=&quot;Times New Roman&quot;&gt;запрос рейтинга пользователя&lt;/font&gt;" style="text;html=1;strokeColor=#3F74E0;fillColor=#5CA8FF;align=center;verticalAlign=middle;whiteSpace=wrap;rounded=1;rotation=270;fontSize=13;fontFamily=Tahoma;labelBackgroundColor=none;fontColor=#393C56;" parent="1" vertex="1">
          <mxGeometry x="500" y="360" width="220" height="30" as="geometry" />
        </mxCell>
        <mxCell id="81rwY3mGK5LgOC5ezEOb-66" value="" style="endArrow=classic;html=1;rounded=0;exitX=1.007;exitY=0.132;exitDx=0;exitDy=0;exitPerimeter=0;fontFamily=Tahoma;labelBackgroundColor=none;strokeColor=#000066;fontColor=default;strokeWidth=2;" parent="1" source="81rwY3mGK5LgOC5ezEOb-6" edge="1">
          <mxGeometry width="50" height="50" relative="1" as="geometry">
            <mxPoint x="520" y="100" as="sourcePoint" />
            <mxPoint x="413" y="790" as="targetPoint" />
            <Array as="points">
              <mxPoint x="640" y="88" />
              <mxPoint x="640" y="790" />
            </Array>
          </mxGeometry>
        </mxCell>
        <mxCell id="81rwY3mGK5LgOC5ezEOb-72" value="HTTP запросы" style="text;html=1;strokeColor=none;fillColor=none;align=center;verticalAlign=middle;whiteSpace=wrap;rounded=0;labelBackgroundColor=none;fontColor=#393C56;" parent="1" vertex="1">
          <mxGeometry x="-495" y="438" width="60" height="30" as="geometry" />
        </mxCell>
        <mxCell id="jO_Zi7yag9qyVXYzIDAD-15" style="edgeStyle=orthogonalEdgeStyle;rounded=0;orthogonalLoop=1;jettySize=auto;html=1;exitX=0.25;exitY=0.1;exitDx=0;exitDy=0;exitPerimeter=0;" parent="1" source="jO_Zi7yag9qyVXYzIDAD-11" edge="1">
          <mxGeometry relative="1" as="geometry">
            <mxPoint x="-594" y="558" as="targetPoint" />
          </mxGeometry>
        </mxCell>
        <mxCell id="jO_Zi7yag9qyVXYzIDAD-12" value="Actor" style="shape=umlActor;verticalLabelPosition=bottom;verticalAlign=top;html=1;outlineConnect=0;fillColor=#007FFF;fontColor=#ffffff;strokeColor=#007FFF;strokeWidth=2;" parent="1" vertex="1">
          <mxGeometry x="-567" y="408" width="30" height="60" as="geometry" />
        </mxCell>
        <mxCell id="jO_Zi7yag9qyVXYzIDAD-17" style="edgeStyle=orthogonalEdgeStyle;rounded=0;orthogonalLoop=1;jettySize=auto;html=1;exitX=0.5;exitY=0.5;exitDx=0;exitDy=0;exitPerimeter=0;" parent="1" source="jO_Zi7yag9qyVXYzIDAD-13" edge="1">
          <mxGeometry relative="1" as="geometry">
            <mxPoint x="-639" y="435.33333333333337" as="targetPoint" />
          </mxGeometry>
        </mxCell>
        <mxCell id="jO_Zi7yag9qyVXYzIDAD-13" value="Actor" style="shape=umlActor;verticalLabelPosition=bottom;verticalAlign=top;html=1;outlineConnect=0;fillColor=#007FFF;fontColor=#ffffff;strokeColor=#007FFF;strokeWidth=2;" parent="1" vertex="1">
          <mxGeometry x="-633" y="408" width="30" height="60" as="geometry" />
        </mxCell>
        <mxCell id="jO_Zi7yag9qyVXYzIDAD-16" value="" style="edgeStyle=orthogonalEdgeStyle;rounded=0;orthogonalLoop=1;jettySize=auto;html=1;exitX=0.25;exitY=0.1;exitDx=0;exitDy=0;exitPerimeter=0;" parent="1" source="jO_Zi7yag9qyVXYzIDAD-12" target="jO_Zi7yag9qyVXYzIDAD-11" edge="1">
          <mxGeometry relative="1" as="geometry">
            <mxPoint x="-594" y="558" as="targetPoint" />
            <mxPoint x="-532" y="416" as="sourcePoint" />
          </mxGeometry>
        </mxCell>
        <mxCell id="jO_Zi7yag9qyVXYzIDAD-11" value="Actor" style="shape=umlActor;verticalLabelPosition=bottom;verticalAlign=top;html=1;outlineConnect=0;fillColor=#007FFF;fontColor=#ffffff;strokeColor=#007FFF;strokeWidth=2;" parent="1" vertex="1">
          <mxGeometry x="-601" y="470" width="30" height="60" as="geometry" />
        </mxCell>
        <mxCell id="E_tDNPI-pun8Lk_HPtKv-2" value="" style="html=1;shape=mxgraph.basic.isocube;isoAngle=15;strokeColor=#A50040;fillColor=#d80073;fontColor=#ffffff;" parent="1" vertex="1">
          <mxGeometry x="332" y="792" width="72" height="36" as="geometry" />
        </mxCell>
        <mxCell id="E_tDNPI-pun8Lk_HPtKv-6" value="" style="html=1;shape=mxgraph.basic.isocube;isoAngle=15;strokeColor=#A50040;fillColor=#d80073;fontColor=#ffffff;" parent="1" vertex="1">
          <mxGeometry x="332" y="784" width="72" height="36" as="geometry" />
        </mxCell>
        <mxCell id="E_tDNPI-pun8Lk_HPtKv-7" value="" style="html=1;shape=mxgraph.basic.isocube;isoAngle=15;strokeColor=#A50040;fillColor=#d80073;fontColor=#ffffff;" parent="1" vertex="1">
          <mxGeometry x="332" y="774" width="72" height="36" as="geometry" />
        </mxCell>
        <mxCell id="E_tDNPI-pun8Lk_HPtKv-8" value="" style="html=1;shape=mxgraph.basic.isocube;isoAngle=15;strokeColor=#A50040;fillColor=#d80073;fontColor=#ffffff;" parent="1" vertex="1">
          <mxGeometry x="332" y="765" width="72" height="36" as="geometry" />
        </mxCell>
        <mxCell id="E_tDNPI-pun8Lk_HPtKv-9" value="" style="shape=cylinder3;whiteSpace=wrap;html=1;boundedLbl=1;backgroundOutline=1;size=15;strokeColor=#2D7600;fillColor=#60a917;fontColor=#ffffff;" parent="1" vertex="1">
          <mxGeometry x="332" y="612" width="64" height="46" as="geometry" />
        </mxCell>
        <mxCell id="E_tDNPI-pun8Lk_HPtKv-10" value="" style="shape=cylinder3;whiteSpace=wrap;html=1;boundedLbl=1;backgroundOutline=1;size=15;strokeColor=#2D7600;fillColor=#60a917;fontColor=#ffffff;" parent="1" vertex="1">
          <mxGeometry x="332" y="600" width="64" height="46" as="geometry" />
        </mxCell>
        <mxCell id="E_tDNPI-pun8Lk_HPtKv-11" value="" style="shape=cylinder3;whiteSpace=wrap;html=1;boundedLbl=1;backgroundOutline=1;size=15;strokeColor=#2D7600;fillColor=#60a917;fontColor=#ffffff;" parent="1" vertex="1">
          <mxGeometry x="332" y="584" width="64" height="46" as="geometry" />
        </mxCell>
        <mxCell id="E_tDNPI-pun8Lk_HPtKv-12" value="" style="shape=cylinder3;whiteSpace=wrap;html=1;boundedLbl=1;backgroundOutline=1;size=15;strokeColor=#2D7600;fillColor=#60a917;fontColor=#ffffff;" parent="1" vertex="1">
          <mxGeometry x="333" y="452" width="64" height="45" as="geometry" />
        </mxCell>
        <mxCell id="E_tDNPI-pun8Lk_HPtKv-13" value="" style="shape=cylinder3;whiteSpace=wrap;html=1;boundedLbl=1;backgroundOutline=1;size=15;strokeColor=#2D7600;fillColor=#60a917;fontColor=#ffffff;" parent="1" vertex="1">
          <mxGeometry x="333" y="439" width="64" height="46" as="geometry" />
        </mxCell>
        <mxCell id="E_tDNPI-pun8Lk_HPtKv-14" value="" style="shape=cylinder3;whiteSpace=wrap;html=1;boundedLbl=1;backgroundOutline=1;size=15;strokeColor=#2D7600;fillColor=#60a917;fontColor=#ffffff;" parent="1" vertex="1">
          <mxGeometry x="333" y="423" width="64" height="46" as="geometry" />
        </mxCell>
        <mxCell id="E_tDNPI-pun8Lk_HPtKv-15" value="" style="shape=cylinder3;whiteSpace=wrap;html=1;boundedLbl=1;backgroundOutline=1;size=15;strokeColor=#3F74E0;fillColor=#5CA8FF;" parent="1" vertex="1">
          <mxGeometry x="324" y="279" width="73" height="57" as="geometry" />
        </mxCell>
        <mxCell id="E_tDNPI-pun8Lk_HPtKv-16" value="" style="shape=cylinder3;whiteSpace=wrap;html=1;boundedLbl=1;backgroundOutline=1;size=15;strokeColor=#3F74E0;fillColor=#5CA8FF;" parent="1" vertex="1">
          <mxGeometry x="324" y="279" width="73" height="45" as="geometry" />
        </mxCell>
        <mxCell id="E_tDNPI-pun8Lk_HPtKv-17" value="" style="shape=cylinder3;whiteSpace=wrap;html=1;boundedLbl=1;backgroundOutline=1;size=15;strokeColor=#3F74E0;fillColor=#5CA8FF;" parent="1" vertex="1">
          <mxGeometry x="324" y="262" width="73" height="46" as="geometry" />
        </mxCell>
        <mxCell id="E_tDNPI-pun8Lk_HPtKv-18" value="" style="endArrow=classic;html=1;rounded=0;labelBackgroundColor=none;strokeColor=#000066;fontColor=default;strokeWidth=2;" parent="1" edge="1">
          <mxGeometry width="50" height="50" relative="1" as="geometry">
            <mxPoint x="-513" y="468" as="sourcePoint" />
            <mxPoint x="-360" y="468" as="targetPoint" />
            <Array as="points">
              <mxPoint x="-423" y="468" />
            </Array>
          </mxGeometry>
        </mxCell>
        <mxCell id="U-qlc5mR2PAobAkXAEJ2-17" style="edgeStyle=orthogonalEdgeStyle;rounded=0;orthogonalLoop=1;jettySize=auto;html=1;exitX=1;exitY=0.75;exitDx=0;exitDy=0;" edge="1" parent="1" source="81rwY3mGK5LgOC5ezEOb-44">
          <mxGeometry relative="1" as="geometry">
            <mxPoint x="468" y="986.0769230769231" as="targetPoint" />
          </mxGeometry>
        </mxCell>
        <mxCell id="81rwY3mGK5LgOC5ezEOb-44" value="" style="rounded=1;whiteSpace=wrap;html=1;fillColor=none;labelBackgroundColor=none;strokeColor=#000066;fontColor=#393C56;strokeWidth=2;" parent="1" vertex="1">
          <mxGeometry x="-360" y="410" width="200" height="120" as="geometry" />
        </mxCell>
        <mxCell id="E_tDNPI-pun8Lk_HPtKv-24" value="" style="endArrow=classic;html=1;rounded=0;entryX=0;entryY=0.5;entryDx=0;entryDy=0;labelBackgroundColor=none;strokeColor=#000066;fontColor=default;strokeWidth=2;" parent="1" edge="1">
          <mxGeometry width="50" height="50" relative="1" as="geometry">
            <mxPoint x="-99" y="629" as="sourcePoint" />
            <mxPoint x="-60" y="629" as="targetPoint" />
            <Array as="points" />
          </mxGeometry>
        </mxCell>
        <mxCell id="E_tDNPI-pun8Lk_HPtKv-30" value="" style="endArrow=classic;html=1;rounded=0;fontFamily=Tahoma;labelBackgroundColor=none;strokeColor=#000066;fontColor=default;strokeWidth=2;" parent="1" edge="1">
          <mxGeometry width="50" height="50" relative="1" as="geometry">
            <mxPoint x="206" y="140" as="sourcePoint" />
            <mxPoint x="324" y="140" as="targetPoint" />
          </mxGeometry>
        </mxCell>
        <mxCell id="E_tDNPI-pun8Lk_HPtKv-31" value="" style="endArrow=classic;html=1;rounded=0;fontFamily=Tahoma;labelBackgroundColor=none;strokeColor=#000066;fontColor=default;strokeWidth=2;" parent="1" edge="1">
          <mxGeometry width="50" height="50" relative="1" as="geometry">
            <mxPoint x="328" y="163" as="sourcePoint" />
            <mxPoint x="202" y="163" as="targetPoint" />
          </mxGeometry>
        </mxCell>
        <mxCell id="E_tDNPI-pun8Lk_HPtKv-32" value="" style="endArrow=classic;html=1;rounded=0;fontFamily=Tahoma;labelBackgroundColor=none;strokeColor=#000066;fontColor=default;strokeWidth=2;endSize=3;startSize=2;jumpSize=2;" parent="1" edge="1">
          <mxGeometry width="50" height="50" relative="1" as="geometry">
            <mxPoint x="205" y="300" as="sourcePoint" />
            <mxPoint x="304" y="300" as="targetPoint" />
          </mxGeometry>
        </mxCell>
        <mxCell id="E_tDNPI-pun8Lk_HPtKv-33" value="" style="endArrow=classic;html=1;rounded=0;fontFamily=Tahoma;labelBackgroundColor=none;strokeColor=#000066;fontColor=default;strokeWidth=2;endSize=3;startSize=2;jumpSize=2;entryX=1.013;entryY=0.629;entryDx=0;entryDy=0;entryPerimeter=0;" parent="1" edge="1" target="81rwY3mGK5LgOC5ezEOb-12">
          <mxGeometry width="50" height="50" relative="1" as="geometry">
            <mxPoint x="306" y="329" as="sourcePoint" />
            <mxPoint x="198" y="324" as="targetPoint" />
          </mxGeometry>
        </mxCell>
        <mxCell id="E_tDNPI-pun8Lk_HPtKv-34" value="" style="endArrow=classic;html=1;rounded=0;fontFamily=Tahoma;labelBackgroundColor=none;strokeColor=#000066;fontColor=default;strokeWidth=2;endSize=3;startSize=2;jumpSize=2;" parent="1" edge="1">
          <mxGeometry width="50" height="50" relative="1" as="geometry">
            <mxPoint x="207" y="460" as="sourcePoint" />
            <mxPoint x="324" y="460" as="targetPoint" />
          </mxGeometry>
        </mxCell>
        <mxCell id="E_tDNPI-pun8Lk_HPtKv-35" value="" style="endArrow=classic;html=1;rounded=0;fontFamily=Tahoma;labelBackgroundColor=none;strokeColor=#000066;fontColor=default;strokeWidth=2;endSize=3;startSize=2;jumpSize=2;" parent="1" edge="1">
          <mxGeometry width="50" height="50" relative="1" as="geometry">
            <mxPoint x="324" y="480" as="sourcePoint" />
            <mxPoint x="206" y="480" as="targetPoint" />
          </mxGeometry>
        </mxCell>
        <mxCell id="E_tDNPI-pun8Lk_HPtKv-36" value="" style="endArrow=classic;html=1;rounded=0;fontFamily=Tahoma;labelBackgroundColor=none;strokeColor=#000066;fontColor=default;strokeWidth=2;endSize=3;startSize=2;jumpSize=2;" parent="1" edge="1">
          <mxGeometry width="50" height="50" relative="1" as="geometry">
            <mxPoint x="207" y="620" as="sourcePoint" />
            <mxPoint x="324" y="620" as="targetPoint" />
          </mxGeometry>
        </mxCell>
        <mxCell id="E_tDNPI-pun8Lk_HPtKv-37" value="" style="endArrow=classic;html=1;rounded=0;fontFamily=Tahoma;labelBackgroundColor=none;strokeColor=#000066;fontColor=default;strokeWidth=2;endSize=3;startSize=2;jumpSize=2;" parent="1" edge="1">
          <mxGeometry width="50" height="50" relative="1" as="geometry">
            <mxPoint x="323" y="646" as="sourcePoint" />
            <mxPoint x="206" y="646" as="targetPoint" />
          </mxGeometry>
        </mxCell>
        <mxCell id="E_tDNPI-pun8Lk_HPtKv-41" value="" style="endArrow=classic;html=1;rounded=0;entryX=1;entryY=0.5;entryDx=0;entryDy=0;fontFamily=Tahoma;labelBackgroundColor=none;strokeColor=#000066;fontColor=default;strokeWidth=2;" parent="1" edge="1">
          <mxGeometry width="50" height="50" relative="1" as="geometry">
            <mxPoint x="414" y="110" as="sourcePoint" />
            <mxPoint x="410" y="629" as="targetPoint" />
            <Array as="points">
              <mxPoint x="590" y="110" />
              <mxPoint x="590" y="630" />
            </Array>
          </mxGeometry>
        </mxCell>
        <mxCell id="U-qlc5mR2PAobAkXAEJ2-3" value="" style="endArrow=classic;html=1;rounded=0;labelBackgroundColor=none;strokeColor=#000066;fontColor=default;strokeWidth=2;" edge="1" parent="1">
          <mxGeometry width="50" height="50" relative="1" as="geometry">
            <mxPoint x="-161" y="467.5" as="sourcePoint" />
            <mxPoint x="-98" y="467.5" as="targetPoint" />
            <Array as="points" />
          </mxGeometry>
        </mxCell>
        <mxCell id="U-qlc5mR2PAobAkXAEJ2-15" value="" style="endArrow=classic;html=1;rounded=0;labelBackgroundColor=none;strokeColor=#000066;fontColor=default;strokeWidth=2;entryX=0;entryY=0.5;entryDx=0;entryDy=0;" edge="1" parent="1">
          <mxGeometry width="50" height="50" relative="1" as="geometry">
            <mxPoint x="-99" y="469.28" as="sourcePoint" />
            <mxPoint x="-60" y="305.78" as="targetPoint" />
            <Array as="points">
              <mxPoint x="-99" y="469.28" />
              <mxPoint x="-99" y="307.28" />
            </Array>
          </mxGeometry>
        </mxCell>
        <mxCell id="U-qlc5mR2PAobAkXAEJ2-20" value="" style="endArrow=classic;html=1;rounded=0;fontFamily=Tahoma;labelBackgroundColor=none;strokeColor=#000066;fontColor=default;strokeWidth=2;" edge="1" parent="1">
          <mxGeometry width="50" height="50" relative="1" as="geometry">
            <mxPoint x="321.6" y="810.69" as="sourcePoint" />
            <mxPoint x="207" y="811" as="targetPoint" />
          </mxGeometry>
        </mxCell>
        <mxCell id="U-qlc5mR2PAobAkXAEJ2-11" value="" style="rounded=1;whiteSpace=wrap;html=1;fillColor=none;fontFamily=Tahoma;labelBackgroundColor=none;strokeColor=#000066;fontColor=#393C56;strokeWidth=2;" vertex="1" parent="1">
          <mxGeometry x="-63" y="722" width="477" height="140" as="geometry" />
        </mxCell>
        <mxCell id="U-qlc5mR2PAobAkXAEJ2-21" value="" style="shape=cylinder3;whiteSpace=wrap;html=1;boundedLbl=1;backgroundOutline=1;size=15;strokeColor=#2D7600;fillColor=#60a917;fontColor=#ffffff;" vertex="1" parent="1">
          <mxGeometry x="333" y="127" width="64" height="46" as="geometry" />
        </mxCell>
        <mxCell id="U-qlc5mR2PAobAkXAEJ2-22" value="" style="shape=cylinder3;whiteSpace=wrap;html=1;boundedLbl=1;backgroundOutline=1;size=15;strokeColor=#2D7600;fillColor=#60a917;fontColor=#ffffff;" vertex="1" parent="1">
          <mxGeometry x="333" y="115" width="64" height="46" as="geometry" />
        </mxCell>
        <mxCell id="U-qlc5mR2PAobAkXAEJ2-23" value="" style="shape=cylinder3;whiteSpace=wrap;html=1;boundedLbl=1;backgroundOutline=1;size=15;strokeColor=#2D7600;fillColor=#60a917;fontColor=#ffffff;" vertex="1" parent="1">
          <mxGeometry x="333" y="99" width="64" height="46" as="geometry" />
        </mxCell>
      </root>
    </mxGraphModel>
  </diagram>
</mxfile>
